<svg width="24" height="24" viewBox="0 0 24 24" fill="none" xmlns="http://www.w3.org/2000/svg">
<path d="M10.001 14C10.3269 14.3326 10.7158 14.5968 11.1451 14.7772C11.5744 14.9576 12.0353 15.0505 12.501 15.0505C12.9666 15.0505 13.4276 14.9576 13.8568 14.7772C14.2861 14.5968 14.6751 14.3326 15.001 14L19.001 10C19.664 9.33697 20.0365 8.43769 20.0365 7.50001C20.0365 6.56233 19.664 5.66305 19.001 5.00001C18.3379 4.33697 17.4387 3.96448 16.501 3.96448C15.5633 3.96448 14.664 4.33697 14.001 5.00001L13.501 5.50001" stroke="white" stroke-width="2" stroke-linecap="round" stroke-linejoin="round"/>
<path d="M13.9994 10C13.6735 9.66741 13.2846 9.40318 12.8553 9.22279C12.426 9.04241 11.965 8.94949 11.4994 8.94949C11.0338 8.94949 10.5728 9.04241 10.1435 9.22279C9.71425 9.40318 9.32528 9.66741 8.9994 10L4.9994 14C4.33636 14.663 3.96387 15.5623 3.96387 16.5C3.96387 17.4377 4.33636 18.337 4.9994 19C5.66244 19.663 6.56172 20.0355 7.4994 20.0355C8.43708 20.0355 9.33636 19.663 9.9994 19L10.4994 18.5" stroke="white" stroke-width="2" stroke-linecap="round" stroke-linejoin="round"/>
</svg>
